# File created by Blade
# Date/Time:  Tue Jan 27 18:35:12 2015
#---------------------------------------------------------
:version 1.10
:name HOM
:units
  mass 1.0
  length 1.000000
  angle deg
:documentation
     Acclaim Skeleton File
:root
   axis xyz
   order TX TY TZ RX RY RZ
   position 0.000000 0.000000 0.000000
   orientation 0 0 0
:bonedata
   begin
      id 1
      name Spine_dum
      direction 0.000000 1.000000 0.000000
      length 5.195262
      axis 0.0 0.0 0.0 xyz
   end
   begin
      id 2
      name LeftUpLeg_dum
      direction 1.000000 0.000000 0.000000
      length 3.351363
      axis 0.0 0.0 0.0 xyz
   end
   begin
      id 3
      name RightUpLeg_dum
      direction -1.000000 0.000000 0.000000
      length 3.351363
      axis 0.0 0.0 0.0 xyz
   end
   begin
      id 4
      name Spine
      direction 0.000000 1.000000 0.000000
      length 0.000000
      axis 0.0 0.0 0.0 xyz
      dof rx ry rz
   end
   begin
      id 5
      name Spine_dum1
      direction 0.000000 1.000000 0.000000
      length 15.653875
      axis 0.0 0.0 0.0 xyz
   end
   begin
      id 6
      name Spine_dum2
      direction 0.000000 1.000000 0.000000
      length 10.329768
      axis 0.0 0.0 0.0 xyz
   end
   begin
      id 7
      name Spine_dum3
      direction 0.000000 1.000000 0.000000
      length 10.329768
      axis 0.0 0.0 0.0 xyz
   end
   begin
      id 8
      name Head
      direction 0.000000 1.000000 0.000000
      length 4.527550
      axis 0.0 0.0 0.0 xyz
      dof rx ry rz
   end
   begin
      id 9
      name LeftShoulder
      direction 1.000000 0.000000 0.000000
      length 6.996006
      axis 0.0 0.0 -90.0 xyz
      dof rx ry rz
   end
   begin
      id 10
      name LeftArm
      direction 1.000000 0.000000 0.000000
      length 10.209302
      axis 0.0 0.0 -90.0 xyz
      dof rx ry rz
   end
   begin
      id 11
      name LeftForeArm
      direction 1.000000 0.000000 0.000000
      length 8.563163
      axis 0.0 0.0 -90.0 xyz
      dof ry rz rx
   end
   begin
      id 12
      name LeftHand
      direction 0.000000 0.000000 0.000000
      length 0.000000
      axis 0.0 0.0 -90.0 xyz
      dof rx ry rz
   end
   begin
      id 13
      name LeftHand_dum1
      direction 0.000000 0.000000 0.000000
      length 0.000000
      axis 0.0 0.0 -90.0 xyz
   end
   begin
      id 14
      name LeftHand_dum2
      direction 1.000000 0.000000 0.000000
      length 3.937000
      axis 0.0 0.0 -90.0 xyz
   end
   begin
      id 15
      name LeftHandThumb1
      direction 0.000000 0.000000 1.000000
      length 3.937000
      axis 0.0 0.0 -90.0 xyz
      dof rx rz ry
   end
   begin
      id 16
      name RightShoulder
      direction -1.000000 0.000000 0.000000
      length 6.996006
      axis 0.0 0.0 90.0 xyz
      dof rx ry rz
   end
   begin
      id 17
      name RightArm
      direction -1.000000 0.000000 0.000000
      length 10.209302
      axis 0.0 0.0 90.0 xyz
      dof rx ry rz
   end
   begin
      id 18
      name RightForeArm
      direction -1.000000 0.000000 0.000000
      length 8.563163
      axis 0.0 0.0 90.0 xyz
      dof ry rz rx
   end
   begin
      id 19
      name RightHand
      direction 0.000000 0.000000 0.000000
      length 0.000000
      axis 0.0 0.0 90.0 xyz
      dof rx ry rz
   end
   begin
      id 20
      name RightHand_dum1
      direction 0.000000 0.000000 0.000000
      length 0.000000
      axis 0.0 0.0 90.0 xyz
   end
   begin
      id 21
      name RightHand_dum2
      direction -1.000000 0.000000 0.000000
      length 3.937000
      axis 0.0 0.0 90.0 xyz
   end
   begin
      id 22
      name RightHandThumb1
      direction 0.000000 0.000000 1.000000
      length 3.937000
      axis 0.0 0.0 90.0 xyz
      dof rx rz ry
   end
   begin
      id 23
      name LeftUpLeg
      direction 0.000000 -1.000000 0.000000
      length 16.346831
      axis 0.0 0.0 0.0 xyz
      dof rx ry rz
   end
   begin
      id 24
      name LeftLeg
      direction 0.000000 -1.000000 0.000000
      length 13.959795
      axis 0.0 0.0 0.0 xyz
      dof rx ry rz
   end
   begin
      id 25
      name LeftFoot
      direction 0.000000 -0.258819 0.965926
      length 5.165550
      axis 15.0 0.0 0.0 xyz
      dof rx ry rz
   end
   begin
      id 26
      name LeftToeBase
      direction 0.000000 0.000000 1.000000
      length 2.952750
      axis 0.0 0.0 0.0 xyz
      dof rx ry rz
   end
   begin
      id 27
      name RightUpLeg
      direction 0.000000 -1.000000 0.000000
      length 16.346831
      axis 0.0 0.0 0.0 xyz
      dof rx ry rz
   end
   begin
      id 28
      name RightLeg
      direction 0.000000 -1.000000 0.000000
      length 13.959795
      axis 0.0 0.0 0.0 xyz
      dof rx ry rz
   end
   begin
      id 29
      name RightFoot
      direction 0.000000 -0.258819 0.965926
      length 5.165550
      axis 15.0 0.0 0.0 xyz
      dof rx ry rz
   end
   begin
      id 30
      name RightToeBase
      direction 0.000000 0.000000 1.000000
      length 2.952750
      axis 0.0 0.0 0.0 xyz
      dof rx ry rz
   end
:hierarchy
   begin
      root Spine_dum LeftUpLeg_dum RightUpLeg_dum
      Spine_dum Spine
      LeftUpLeg_dum LeftUpLeg
      RightUpLeg_dum RightUpLeg
      Spine Spine_dum1 Spine_dum2 Spine_dum3
      Spine_dum1 Head
      Spine_dum2 LeftShoulder
      Spine_dum3 RightShoulder
      LeftShoulder LeftArm
      LeftArm LeftForeArm
      LeftForeArm LeftHand
      LeftHand LeftHand_dum1 LeftHand_dum2
      LeftHand_dum1 LeftHandThumb1
      RightShoulder RightArm
      RightArm RightForeArm
      RightForeArm RightHand
      RightHand RightHand_dum1 RightHand_dum2
      RightHand_dum1 RightHandThumb1
      LeftUpLeg LeftLeg
      LeftLeg LeftFoot
      LeftFoot LeftToeBase
      RightUpLeg RightLeg
      RightLeg RightFoot
      RightFoot RightToeBase
   end

# File created by Blade
# Date/Time:  Tue Jan 27 18:35:03 2015
# Frame Rate: 120.000 fps
#------------------------------------------------------
:FULLY-SPECIFIED
:DEGREES
449
root -4.294773 31.590592 -2.073179 -9.615061 15.627749 -14.728253
Spine 16.463616 -13.294969 -0.165602
Head 3.591391 1.712314 15.767281
LeftShoulder -12.787094 11.473552 18.947229
LeftArm 27.008191 -33.245561 -73.409144
LeftForeArm 135.031293 -0.000000 131.135131
LeftHand 7.460535 -0.000000 -8.276818
LeftHandThumb1 -26.253704 0.000000 33.147579
RightShoulder -16.050679 -8.216707 -5.750141
RightArm 5.644451 -33.544666 80.139550
RightForeArm -24.775426 0.000000 28.277272
RightHand -13.836382 -0.000000 11.748662
RightHandThumb1 -24.326973 -0.000000 -32.862282
LeftUpLeg -8.060586 -0.086037 8.175059
LeftLeg 34.911002 -0.000000 -0.000000
LeftFoot -30.021394 15.325969 -17.148136
LeftToeBase 8.600242 -0.000000 -0.000000
RightUpLeg -98.190322 10.912435 19.569386
RightLeg 102.842460 -0.000000 -0.000000
RightFoot -2.608822 2.060826 19.740144
RightToeBase 2.752059 -0.000000 -0.000000
450
root -4.302364 31.589063 -2.078320 -9.666407 15.942769 -14.697064
Spine 16.494069 -13.332896 -0.157003
Head 3.595194 1.632501 15.737487
LeftShoulder -12.673173 11.266771 18.934375
LeftArm 27.138976 -33.087723 -73.510030
LeftForeArm 135.239238 -0.000000 130.950781
LeftHand 7.481095 -0.000000 -8.259475
LeftHandThumb1 -26.253704 0.000000 33.147579
RightShoulder -16.066848 -8.223350 -5.792506
RightArm 5.531538 -33.596357 80.361039
RightForeArm -24.797430 -0.000000 28.159235
RightHand -13.823388 0.000000 11.924618
RightHandThumb1 -24.326973 -0.000000 -32.862282
LeftUpLeg -8.108879 -0.217621 8.139122
LeftLeg 34.955704 -0.000000 -0.000000
LeftFoot -30.073813 15.154720 -17.297487
LeftToeBase 8.506394 -0.000000 -0.000000
RightUpLeg -98.239979 10.905961 19.517670
RightLeg 102.816077 -0.000000 -0.000000
RightFoot -2.576129 2.394050 19.983640
RightToeBase 2.681692 -0.000000 -0.000000
451
root -4.305570 31.588256 -2.087291 -9.781839 16.270034 -14.669533
Spine 16.628220 -13.423476 -0.157219
Head 3.547613 1.600593 15.684714
LeftShoulder -12.634583 11.087415 18.870608
LeftArm 27.342532 -32.897695 -73.601052
LeftForeArm 135.436912 -0.000000 130.768729
LeftHand 7.528669 -0.000000 -8.370407
LeftHandThumb1 -26.253704 0.000000 33.147579
RightShoulder -16.014725 -8.176463 -5.864883
RightArm 5.408136 -33.659731 80.571082
RightForeArm -24.686330 -0.000000 28.072169
RightHand -13.781781 -0.000000 12.125562
RightHandThumb1 -24.326973 -0.000000 -32.862282
LeftUpLeg -8.104143 -0.408116 8.076639
LeftLeg 34.981602 -0.000000 -0.000000
LeftFoot -29.982736 15.068149 -17.250684
LeftToeBase 8.480975 -0.000000 -0.000000
RightUpLeg -98.230431 10.825942 19.468860
RightLeg 102.780160 -0.000000 -0.000000
RightFoot -2.509509 2.815258 20.057262
RightToeBase 2.593235 -0.000000 -0.000000
452
root -4.309698 31.586706 -2.094827 -9.869245 16.560633 -14.640081
Spine 16.714594 -13.464133 -0.145442
Head 3.512594 1.568734 15.641401
LeftShoulder -12.560158 10.901799 18.850196
LeftArm 27.478573 -32.705338 -73.687642
LeftForeArm 135.643196 -0.000000 130.607380
LeftHand 7.537637 0.000000 -8.405909
LeftHandThumb1 -26.253704 0.000000 33.147579
RightShoulder -15.968762 -8.148067 -5.936652
RightArm 5.310956 -33.795330 80.753236
RightForeArm -24.665527 -0.000000 27.995475
RightHand -13.737067 -0.000000 12.139545
RightHandThumb1 -24.326973 -0.000000 -32.862282
LeftUpLeg -8.115295 -0.594451 8.012650
LeftLeg 35.006863 -0.000000 -0.000000
LeftFoot -29.900442 15.010574 -17.198385
LeftToeBase 8.492786 -0.000000 -0.000000
RightUpLeg -98.239639 10.791308 19.422378
RightLeg 102.743033 -0.000000 -0.000000
RightFoot -2.445142 3.246141 20.268565
RightToeBase 2.629518 -0.000000 -0.000000
453
root -4.311304 31.583461 -2.101217 -9.925884 16.811260 -14.579276
Spine 16.765061 -13.474176 -0.158334
Head 3.503041 1.567088 15.601164
LeftShoulder -12.500598 10.745556 18.834994
LeftArm 27.611485 -32.499703 -73.747675
LeftForeArm 135.883543 -0.000000 130.468459
LeftHand 7.556757 0.000000 -8.470746
LeftHandThumb1 -26.253704 0.000000 33.147579
RightShoulder -15.918066 -8.124297 -6.004795
RightArm 5.222202 -33.939874 80.906241
RightForeArm -24.648352 -0.000000 27.935477
RightHand -13.766453 -0.000000 12.225343
RightHandThumb1 -24.326973 -0.000000 -32.862282
LeftUpLeg -8.122529 -0.783781 7.912462
LeftLeg 35.013138 -0.000000 -0.000000
LeftFoot -29.844042 15.001581 -17.151939
LeftToeBase 8.507444 -0.000000 -0.000000
RightUpLeg -98.262660 10.790014 19.358799
RightLeg 102.702948 -0.000000 -0.000000
RightFoot -2.340593 3.693905 20.540014
RightToeBase 2.466469 -0.000000 -0.000000
454
root -4.314680 31.581369 -2.106674 -10.006127 17.025100 -14.553305
Spine 16.832193 -13.468990 -0.138914
Head 3.497830 1.568307 15.558963
LeftShoulder -12.470610 10.608022 18.806313
LeftArm 27.767296 -32.256010 -73.774299
LeftForeArm 136.180370 -0.000000 130.344052
LeftHand 7.619383 -0.000000 -8.554927
LeftHandThumb1 -26.253704 0.000000 33.147579
RightShoulder -15.850442 -8.131077 -6.058702
RightArm 5.194461 -34.079686 80.998990
RightForeArm -24.618013 0.000000 27.893449
RightHand -13.696917 -0.000000 12.266500
RightHandThumb1 -24.326973 -0.000000 -32.862282
LeftUpLeg -8.101109 -0.982274 7.853686
LeftLeg 35.014126 -0.000000 -0.000000
LeftFoot -29.816027 14.988464 -17.154296
LeftToeBase 8.535006 -0.000000 -0.000000
RightUpLeg -98.247080 10.811733 19.340094
RightLeg 102.642845 -0.000000 -0.000000
RightFoot -2.229757 4.127312 20.791870
RightToeBase 2.485570 -0.000000 -0.000000
455
root -4.315684 31.578340 -2.110845 -10.076087 17.210470 -14.522221
Spine 16.891155 -13.451282 -0.118386
Head 3.488709 1.625980 15.538422
LeftShoulder -12.416818 10.462803 18.800155
LeftArm 27.834401 -32.031157 -73.746608
LeftForeArm 136.350664 -0.000000 130.288480
LeftHand 7.685024 -0.000000 -8.729658
LeftHandThumb1 -26.253704 0.000000 33.147579
RightShoulder -15.787402 -8.113120 -6.111100
RightArm 5.152679 -34.244654 81.075915
RightForeArm -24.628563 0.000000 27.890678
RightHand -13.703809 -0.000000 12.277616
RightHandThumb1 -24.326973 -0.000000 -32.862282
LeftUpLeg -8.068604 -1.179052 7.787198
LeftLeg 34.999633 -0.000000 -0.000000
LeftFoot -29.800637 15.020243 -17.133059
LeftToeBase 8.546799 -0.000000 -0.000000
RightUpLeg -98.222318 10.843865 19.338232
RightLeg 102.589138 -0.000000 -0.000000
RightFoot -2.100148 4.589256 21.119491
RightToeBase 2.237991 -0.000000 -0.000000
456
root -4.317129 31.576075 -2.116621 -10.139614 17.362004 -14.507704
Spine 16.934565 -13.422431 -0.073157
Head 3.481046 1.693729 15.520263
LeftShoulder -12.422062 10.370238 18.767943
LeftArm 27.982078 -31.744036 -73.731422
LeftForeArm 136.510869 -0.000000 130.196632
LeftHand 7.711516 -0.000000 -8.700591
LeftHandThumb1 -26.253704 0.000000 33.147579
RightShoulder -15.719250 -8.136761 -6.137196
RightArm 5.213182 -34.409663 81.057275
RightForeArm -24.746275 -0.000000 27.907179
RightHand -13.822181 -0.000000 12.065263
RightHandThumb1 -24.326973 -0.000000 -32.862282
LeftUpLeg -8.045828 -1.350259 7.742501
LeftLeg 34.993383 -0.000000 -0.000000
LeftFoot -29.788507 15.032271 -17.132663
LeftToeBase 8.568242 -0.000000 -0.000000
RightUpLeg -98.186653 10.902783 19.358281
RightLeg 102.527076 -0.000000 -0.000000
RightFoot -1.946887 5.079676 21.331202
RightToeBase 1.891856 -0.000000 -0.000000
